# xmcd
#
# Track frame offsets:
#	150
#	15336
#	31304
#	43649
#	61621
#	76057
#	91363
#	107921
#	124884
#	143526
#	164645
#	184012
#	204637
#	222603
#
# Disc length: 3336 seconds
#
# Revision: 1
# Processed by: cddbd v1.5.2PL0 Copyright (c) Steve Scherf et al.
# Submitted via: audiograbber 1.83.01
#
DISCID=ba0d060e
DTITLE=Jill Johnsson - Music Row
DYEAR=2007
DGENRE=Country
TTITLE0=Rhythm Guitar
TTITLE1=Jolene
TTITLE2=Why'd You Come In Here Looking Like That (Duet With Nina Persson)
TTITLE3=Angel Of The Morning
TTITLE4=Papa Come Quick
TTITLE5=Mama He's Crazy
TTITLE6=Tumblin' Dice (Duet With Kim Carnes)
TTITLE7=You're No Good
TTITLE8=Why Not Me
TTITLE9=Life In The Fast Lane
TTITLE10=You Don't Have To Say You Love
TTITLE11=Need Your Love So Bad
TTITLE12=To Know Him Is To Love Him (Duet With Lisa Miskkovsky)
TTITLE13=Angel From Montgomery
EXTD=
EXTT0=
EXTT1=
EXTT2=
EXTT3=
EXTT4=
EXTT5=
EXTT6=
EXTT7=
EXTT8=
EXTT9=
EXTT10=
EXTT11=
EXTT12=
EXTT13=
PLAYORDER=
